<?xml version="1.0" encoding="utf-8"?>
<!-- Generator: Adobe Illustrator 19.0.0, SVG Export Plug-In . SVG Version: 6.00 Build 0)  -->
<svg version="1.1" id="Layer_1" xmlns="http://www.w3.org/2000/svg" xmlns:xlink="http://www.w3.org/1999/xlink" x="0px" y="0px"
	 viewBox="0 0 632 192" style="enable-background:new 0 0 632 192;" xml:space="preserve">
<style type="text/css">
	.st0{fill:#334960;}
	.st1{fill:#334960;stroke:#334960;stroke-width:4;stroke-miterlimit:10;}
	.st2{fill:#010101;}
</style>
<g id="XMLID_1_">
	<g id="XMLID_70_">
		<path id="XMLID_219_" class="st0" d="M99.1,99c-34.9-2.9-64.4-18.4-76.2-37.9C30.6,83,61.5,101.4,99,104.5
			c37.4,3.1,69.2-10.2,77.9-30.8C164.1,91.2,134,101.9,99.1,99z"/>
	</g>
	<g id="XMLID_69_">
		<path id="XMLID_217_" class="st0" d="M94,112.8c-34.3-9.4-61.8-30.3-71.2-51.7c5,23,33.5,47,70.4,57.1c36.8,10.1,70,3.1,81.2-15.5
			C159.6,117.5,128.4,122.2,94,112.8z"/>
	</g>
	<g id="XMLID_68_">
		<path id="XMLID_215_" class="st0" d="M106.2,104.6c-33.1,13.2-64.6,12-80.8-1.1c13,17.3,46.6,20.6,82.1,6.4
			c35.5-14.2,61.4-41.3,63.9-64.7C164.3,67.6,139.2,91.4,106.2,104.6z"/>
	</g>
	<g id="XMLID_67_">
		<path id="XMLID_213_" class="st0" d="M105.2,120c-34.3,6.7-65.3-0.5-79.8-16.5c10.8,19.5,43.6,29.2,80.5,22
			c36.8-7.2,65.7-29,71-51.8C167.2,94.5,139.5,113.3,105.2,120z"/>
	</g>
	<g id="XMLID_66_">
		<path id="XMLID_103_" class="st0" d="M98.1,38.9c-6.3,0-11.4-5.1-11.4-11.4S91.8,16,98.1,16c6.3,0,11.4,5.1,11.4,11.4
			S104.4,38.9,98.1,38.9z M98.1,22c-3,0-5.4,2.4-5.4,5.4s2.4,5.4,5.4,5.4c3,0,5.4-2.4,5.4-5.4S101.1,22,98.1,22z"/>
	</g>
	<g id="XMLID_65_">
		<path id="XMLID_102_" class="st0" d="M119.5,83.3h-6V49.6c0-3.7-3-6.7-6.7-6.7H89.2c-3.7,0-6.7,3-6.7,6.7v33.8h-6V49.6
			c0-7,5.7-12.7,12.7-12.7h17.6c7,0,12.7,5.7,12.7,12.7V83.3z"/>
	</g>
	<g id="XMLID_64_">
		<circle id="XMLID_205_" class="st0" cx="98.1" cy="40" r="1.8"/>
	</g>
	<g id="XMLID_63_">
		<rect id="XMLID_203_" x="97.1" y="42.9" class="st0" width="2.1" height="17.1"/>
	</g>
	<g id="XMLID_62_">
		<rect id="XMLID_201_" x="97.9" y="40" class="st0" width="0.5" height="8.2"/>
	</g>
	<g id="XMLID_61_">
		<rect id="XMLID_101_" x="83.2" y="50.3" class="st0" width="6" height="33.1"/>
	</g>
	<g id="XMLID_60_">
		<rect id="XMLID_100_" x="106.8" y="50.3" class="st0" width="6" height="33.1"/>
	</g>
	<g id="XMLID_59_">
		<path id="XMLID_97_" class="st0" d="M127.6,41.2c-5.5,0-10-4.5-10-10c0-5.5,4.5-10,10-10c5.5,0,10,4.5,10,10
			C137.6,36.7,133.1,41.2,127.6,41.2z M127.6,27.1c-2.2,0-4,1.8-4,4s1.8,4,4,4c2.2,0,4-1.8,4-4S129.8,27.1,127.6,27.1z"/>
	</g>
	<g id="XMLID_58_">
		<path id="XMLID_96_" class="st0" d="M144.7,83.3h-6V52.1c0-3.9-2.5-7-5.5-7h-15.5v-6h15.5c6.4,0,11.5,5.8,11.5,13V83.3z"/>
	</g>
	<g id="XMLID_57_">
		<rect id="XMLID_95_" x="131.3" y="55.2" class="st0" width="6" height="31"/>
	</g>
	<g id="XMLID_56_">
		<path id="XMLID_92_" class="st0" d="M68.2,41.3c-5.5,0-10-4.5-10-10c0-5.5,4.5-10,10-10c5.5,0,10,4.5,10,10
			C78.2,36.8,73.7,41.3,68.2,41.3z M68.2,27.2c-2.2,0-4,1.8-4,4s1.8,4,4,4s4-1.8,4-4S70.4,27.2,68.2,27.2z"/>
	</g>
	<g id="XMLID_55_">
		<path id="XMLID_91_" class="st0" d="M57,83.3h-6V52.2c0-7.2,5.2-13,11.5-13h15.5v6H62.6c-3.1,0-5.5,3.1-5.5,7V83.3z"/>
	</g>
	<g id="XMLID_54_">
		
			<rect id="XMLID_90_" x="46" y="66.3" transform="matrix(4.740010e-004 1 -1 4.740010e-004 130.7675 7.8248)" class="st0" width="30.9" height="6"/>
	</g>
	<g id="XMLID_53_">
		<path id="XMLID_47_" class="st1" d="M217.4,60.3c0-6.9,1.8-11.2,4.4-13.7c2.6-2.5,6-3.1,9.1-3.1c3,0,6.4,0.7,9.1,3.1
			c2.6,2.5,4.4,6.8,4.4,13.7v1.5h-3v-1.5c0-9.7-3.7-13.9-10.5-13.9c-6.9,0-10.6,4.1-10.6,13.9v29.9c0,9.7,3.5,14,10.6,14
			c3.4,0,6-1.1,7.8-3.3c1.8-2.4,2.6-5.8,2.6-10.7v-1.5h3v1.5c0,7.1-1.8,11.1-4.4,13.7c-2.6,2.5-6,3.2-9.1,3.2
			c-3.1,0-6.5-0.7-9.1-3.2c-2.6-2.5-4.4-6.6-4.4-13.7V60.3z"/>
		<path id="XMLID_72_" class="st1" d="M281.7,107h-22.4V43.5h3v60.6h19.4V107z"/>
		<path id="XMLID_74_" class="st1" d="M299.6,107h-2.9V43.5h2.9V107z"/>
		<path id="XMLID_76_" class="st1" d="M339.2,43.5v2.9h-19.9v27.3h17.1v2.9h-17.1v27.4h19.9v2.9h-22.8V43.5H339.2z"/>
		<path id="XMLID_78_" class="st1" d="M379.5,107l-22-54.4V107h-3V43.5h2.5L379,97.9V43.5h3V107H379.5z"/>
		<path id="XMLID_80_" class="st1" d="M397.8,43.4h27.7v3h-12.4v60.5h-2.9V46.4h-12.4V43.4z"/>
		<path id="XMLID_82_" class="st1" d="M488.1,107l-22-54.4V107h-3V43.5h2.5l21.9,54.4V43.5h3V107H488.1z"/>
		<path id="XMLID_84_" class="st1" d="M529.7,43.5v2.9h-19.9v27.3h17.1v2.9h-17.1v27.4h19.9v2.9h-22.8V43.5H529.7z"/>
		<path id="XMLID_86_" class="st1" d="M542.2,88.7h2.9v1.4c0,6.3,1.6,9.7,3.7,11.6s4.7,2.3,7,2.3c6.8,0,10.7-2.8,10.7-11.2
			c0-14.1-24.2-18-24.2-34.4c0-9.5,4.9-15,13.6-15c9,0,13.7,5.9,13.7,16.9v1.5h-3v-1.5c0-9.5-3.5-13.9-10.7-13.9
			c-6.8,0-10.7,3.5-10.7,11.7c0,15.1,24.3,18.1,24.3,34.4c0,9.4-4.9,14.4-13.7,14.4c-9.1,0-13.6-5.6-13.6-16.8V88.7z"/>
		<path id="XMLID_88_" class="st1" d="M581.4,43.4h27.7v3h-12.4v60.5h-2.9V46.4h-12.4V43.4z"/>
	</g>
	<g id="XMLID_52_">
		<path id="XMLID_4_" class="st0" d="M152.5,144.5c1.6-0.3,3.7-0.5,5.6-0.5c2.6,0,4.8,0.6,6.1,1.8c1.2,1,1.9,2.4,1.9,4
			c0,3.5-2.9,6.2-6.1,7l0,0.1c1.8,0.6,2.7,2.4,2.9,4.9c0.3,3.4,0.5,5.7,0.8,6.7h-3.3c-0.2-0.5-0.4-3.1-0.6-5.9
			c-0.2-3.3-1.5-4.7-4-4.7h-2.8l-2.1,10.6h-3.2L152.5,144.5z M153.4,155.6h2.8c4,0,6.6-2.5,6.6-5.4c0-2.6-2.1-3.7-5-3.7
			c-1.3,0-2.1,0.1-2.7,0.3L153.4,155.6z"/>
		<path id="XMLID_7_" class="st0" d="M180.8,167.4c-1.4,0.8-3.6,1.4-6.1,1.4c-4.9,0-7-3.1-7-7c0-5.3,4.1-11.2,10.1-11.2
			c3.5,0,5.4,2,5.4,4.5c0,4.6-5.4,5.8-12.3,5.7c-0.2,0.8,0,2.4,0.4,3.3c0.7,1.5,2.2,2.3,4.1,2.3c2.2,0,3.8-0.6,5-1.2L180.8,167.4z
			 M177.2,153c-3,0-5.3,2.8-6,5.5c5,0,8.8-0.6,8.8-3.3C180.1,153.8,178.9,153,177.2,153z"/>
		<path id="XMLID_10_" class="st0" d="M196.9,168.4c0-1,0.2-2.7,0.4-4.5h-0.1c-2,3.6-4.5,4.9-7.2,4.9c-3.2,0-5.3-2.4-5.3-5.8
			c0-6,4.7-12.5,12.8-12.5c1.8,0,3.7,0.3,5,0.7l-1.9,9.1c-0.6,3-0.9,6.1-0.8,8.1H196.9z M199,153.2c-0.5-0.1-1.1-0.3-2.2-0.3
			c-4.8,0-8.6,4.7-8.7,9.5c0,1.9,0.7,3.9,3.2,3.9c2.6,0,5.8-3.2,6.7-7.9L199,153.2z"/>
		<path id="XMLID_13_" class="st0" d="M217.3,167.8c-1,0.4-2.9,1-5.3,1c-4.8,0-7.1-3-7.1-6.7c0-5.9,4.6-11.4,11.3-11.4
			c1.7,0,3.3,0.5,3.8,0.8l-0.9,2.4c-0.7-0.3-1.8-0.6-3.1-0.6c-4.8,0-7.8,4.5-7.8,8.6c0,2.8,1.6,4.6,4.6,4.6c1.9,0,3.3-0.5,4.3-1
			L217.3,167.8z"/>
		<path id="XMLID_15_" class="st0" d="M220.7,168.4l5.1-25.6h3.2l-2.3,11.2h0.1c1.6-2.1,3.8-3.5,6.6-3.5c2.1,0,4.6,1.2,4.6,4.7
			c0,0.9-0.1,2.1-0.3,3l-2.1,10.2h-3.2l2.1-10c0.1-0.6,0.2-1.4,0.2-2.4c0-1.6-0.8-2.9-2.9-2.9c-2.4,0-5.5,2.7-6.3,6.6l-1.7,8.7
			H220.7z"/>
		<path id="XMLID_17_" class="st0" d="M241.1,168.4l3.5-17.4h3.2l-3.5,17.4H241.1z M245.2,146.2c0-1.2,1-2,2.1-2s1.9,0.8,1.9,1.9
			c0,1.2-0.9,2-2.1,2C245.9,148,245.2,147.2,245.2,146.2z"/>
		<path id="XMLID_20_" class="st0" d="M249.8,168.4l2.5-12.3c0.4-1.9,0.6-3.6,0.9-5.1h2.8l-0.5,3.4h0.1c1.6-2.4,4.1-3.8,6.8-3.8
			c2.2,0,4.7,1.2,4.7,4.9c0,0.8-0.2,1.9-0.3,2.8l-2.1,10.2h-3.2l2-10c0.2-0.7,0.3-1.5,0.3-2.2c0-1.8-0.7-3.1-2.9-3.1
			c-2.2,0-5.4,2.6-6.3,6.9l-1.7,8.5H249.8z"/>
		<path id="XMLID_22_" class="st0" d="M270.3,172.4c1.1,0.6,2.9,1.2,4.9,1.2c3.1,0,5.5-1.5,6.6-6.2l0.6-2.6h-0.1
			c-1.6,2.5-3.8,3.7-6.4,3.7c-3.7,0-5.6-3-5.6-6c0-5.9,4.6-11.8,11.7-11.8c2.1,0,4.5,0.6,5.9,1.2l-2.8,14.4
			c-0.8,3.7-1.8,6.2-3.7,7.8c-1.8,1.5-4.3,1.9-6.4,1.9c-2.2,0-4.3-0.5-5.5-1.2L270.3,172.4z M284.5,153.6c-0.6-0.3-1.7-0.6-3-0.6
			c-4.6,0-7.8,4.5-7.8,8.9c0,1.9,0.7,4.2,3.5,4.2c2.7,0,5.4-3.2,6.1-6.7L284.5,153.6z"/>
		<path id="XMLID_25_" class="st0" d="M321,153.7c0,4.2-1.6,8.9-4.6,11.7c-2.3,2.1-5.3,3.4-8.8,3.4c-6.6,0-9.8-4.7-9.8-9.9
			c0-4.3,1.8-9,4.9-11.9c2.2-2,5.4-3.3,8.6-3.3C318.2,143.8,321,148.5,321,153.7z M305,148.7c-2.5,2.3-3.9,6.6-3.9,10
			c0,4,1.9,7.6,6.9,7.6c2.2,0,4.3-0.9,5.9-2.4c2.4-2.3,3.8-6.7,3.8-10c0-3.5-1.2-7.6-6.8-7.6C308.6,146.3,306.6,147.2,305,148.7z"/>
		<path id="XMLID_28_" class="st0" d="M340.7,151l-2.5,12.3c-0.4,1.9-0.6,3.6-0.8,5.1h-2.9l0.5-3.3h-0.1c-1.6,2.3-4.1,3.7-6.5,3.7
			c-2.4,0-4.8-1.1-4.8-5c0-0.8,0.1-1.8,0.3-2.9l2-9.9h3.2l-1.9,9.7c-0.2,1-0.3,1.8-0.3,2.6c0,1.8,0.8,3,3,3c2.3,0,5.2-2.5,6-6.4
			l1.8-8.9H340.7z"/>
		<path id="XMLID_30_" class="st0" d="M351,146.3l-1,4.7h4.4l-0.5,2.3h-4.4l-1.7,8.5c-0.2,1-0.3,1.9-0.3,2.8c0,1,0.5,1.7,1.8,1.7
			c0.5,0,1.1,0,1.5-0.1l-0.2,2.3c-0.6,0.2-1.5,0.3-2.4,0.3c-2.8,0-3.9-1.6-3.9-3.4c0-1,0.1-2,0.4-3.3l1.8-8.8h-2.7l0.5-2.3h2.6
			l0.8-3.9L351,146.3z"/>
		<path id="XMLID_32_" class="st0" d="M385.6,153.7c0,4.2-1.6,8.9-4.6,11.7c-2.3,2.1-5.3,3.4-8.8,3.4c-6.6,0-9.8-4.7-9.8-9.9
			c0-4.3,1.8-9,4.9-11.9c2.2-2,5.4-3.3,8.6-3.3C382.8,143.8,385.6,148.5,385.6,153.7z M369.6,148.7c-2.5,2.3-3.9,6.6-3.9,10
			c0,4,1.9,7.6,6.9,7.6c2.2,0,4.3-0.9,5.9-2.4c2.4-2.3,3.8-6.7,3.8-10c0-3.5-1.2-7.6-6.8-7.6C373.2,146.3,371.2,147.2,369.6,148.7z"
			/>
		<path id="XMLID_35_" class="st0" d="M387.3,168.4l2.5-12.3c0.4-1.9,0.6-3.6,0.9-5.1h2.8l-0.5,3.4h0.1c1.6-2.4,4.1-3.8,6.8-3.8
			c2.2,0,4.7,1.2,4.7,4.9c0,0.8-0.2,1.9-0.3,2.8l-2.1,10.2H399l2-10c0.2-0.7,0.3-1.5,0.3-2.2c0-1.8-0.7-3.1-2.9-3.1
			c-2.2,0-5.4,2.6-6.3,6.9l-1.7,8.5H387.3z"/>
		<path id="XMLID_37_" class="st0" d="M423.5,146.8H416l0.5-2.6h18.2l-0.5,2.6h-7.5l-4.3,21.7h-3.2L423.5,146.8z"/>
		<path id="XMLID_39_" class="st0" d="M432.4,168.4l3.5-17.4h3.2l-3.5,17.4H432.4z M436.5,146.2c0-1.2,1-2,2.1-2s1.9,0.8,1.9,1.9
			c0,1.2-0.9,2-2.1,2C437.2,148,436.5,147.2,436.5,146.2z"/>
		<path id="XMLID_42_" class="st0" d="M441.1,168.4l2.5-12.3c0.4-1.9,0.6-3.6,0.8-5.1h2.8l-0.5,3.3h0.1c1.7-2.4,4-3.7,6.5-3.7
			c2.8,0,4.2,1.7,4.3,3.9c1.6-2.5,4-3.9,6.8-3.9c2.1,0,4.5,1.3,4.5,4.6c0,0.8-0.1,2-0.3,3l-2.1,10.3h-3.1l2-10
			c0.2-0.6,0.3-1.5,0.3-2.3c0-1.8-0.7-3-2.8-3c-2.3,0-5,2.5-5.8,6.4l-1.8,8.9h-3l2.1-10.2c0.2-0.8,0.2-1.4,0.2-2.1
			c0-1.5-0.4-3-2.7-3s-5.2,2.9-5.9,6.6l-1.7,8.7H441.1z"/>
		<path id="XMLID_44_" class="st0" d="M485.2,167.4c-1.4,0.8-3.6,1.4-6.1,1.4c-4.9,0-7-3.1-7-7c0-5.3,4.1-11.2,10.1-11.2
			c3.5,0,5.4,2,5.4,4.5c0,4.6-5.4,5.8-12.3,5.7c-0.2,0.8,0,2.4,0.4,3.3c0.7,1.5,2.2,2.3,4.1,2.3c2.2,0,3.8-0.6,5-1.2L485.2,167.4z
			 M481.7,153c-3,0-5.3,2.8-6,5.5c5,0,8.8-0.6,8.8-3.3C484.5,153.8,483.4,153,481.7,153z"/>
	</g>
	<g id="XMLID_51_">
		<path id="XMLID_114_" class="st0" d="M603.6,159l-103.9,2.9c-2.2,0-4-1.3-4-2.9l0,0c0-1.6,1.8-2.9,4-2.9L603.6,159"/>
	</g>
	<g id="XMLID_50_">
		<path id="XMLID_112_" class="st0" d="M30.8,159.3l103.9,2.9c2.2,0,4-1.3,4-2.9l0,0c0-1.6-1.8-2.9-4-2.9L30.8,159.3"/>
	</g>
	<g id="XMLID_49_">
		<line id="XMLID_110_" class="st2" x1="274.9" y1="143.2" x2="274.9" y2="143.2"/>
	</g>
	<g id="XMLID_48_">
		<rect id="XMLID_3_" x="196.4" y="21.1" class="st0" width="2" height="99.2"/>
	</g>
</g>
</svg>
