<?xml version="1.0" encoding="utf-8"?>
<!-- Generator: Adobe Illustrator 19.0.0, SVG Export Plug-In . SVG Version: 6.00 Build 0)  -->
<svg version="1.1" id="Layer_1" xmlns="http://www.w3.org/2000/svg" xmlns:xlink="http://www.w3.org/1999/xlink" x="0px" y="0px"
	 viewBox="0 0 632 192" style="enable-background:new 0 0 632 192;" xml:space="preserve">
<style type="text/css">
	.st0{fill:#334960;}
	.st1{fill:#010101;}
</style>
<g id="XMLID_1_">
	<g id="XMLID_71_">
		<path id="XMLID_110_" class="st0" d="M84.3,166.5c-40.2,0-72.9-32.7-72.9-72.9s32.7-72.9,72.9-72.9c40.2,0,72.9,32.7,72.9,72.9
			S124.4,166.5,84.3,166.5z M84.3,25.5c-37.6,0-68.1,30.6-68.1,68.1s30.6,68.1,68.1,68.1c37.6,0,68.1-30.6,68.1-68.1
			S121.8,25.5,84.3,25.5z"/>
	</g>
	<g id="XMLID_70_">
		<path id="XMLID_129_" class="st0" d="M82.9,115.9c-27-2.2-49.9-14.2-59.1-29.4c5.9,17,29.9,31.3,58.9,33.6
			c29,2.4,53.6-7.9,60.4-23.8C133.2,109.8,109.9,118.1,82.9,115.9z"/>
	</g>
	<g id="XMLID_69_">
		<path id="XMLID_128_" class="st0" d="M78.9,126.5c-26.6-7.3-47.9-23.5-55.1-40.1c3.8,17.8,26,36.4,54.5,44.2
			c28.5,7.8,54.2,2.4,62.9-12C129.7,130.2,105.5,133.8,78.9,126.5z"/>
	</g>
	<g id="XMLID_68_">
		<path id="XMLID_127_" class="st0" d="M88.3,120.2c-25.6,10.2-50,9.3-62.6-0.9c10.1,13.4,36.1,15.9,63.6,4.9
			c27.5-11,47.5-32,49.5-50.2C133.4,91.5,113.9,110,88.3,120.2z"/>
	</g>
	<g id="XMLID_67_">
		<path id="XMLID_126_" class="st0" d="M87.6,132.1c-26.6,5.2-50.6-0.4-61.8-12.8c8.3,15.1,33.8,22.6,62.4,17
			c28.5-5.6,50.9-22.5,55-40.1C135.6,112.4,114.1,126.9,87.6,132.1z"/>
	</g>
	<g id="XMLID_66_">
		<path id="XMLID_103_" class="st0" d="M82.1,69.3c-4.9,0-8.9-4-8.9-8.9s4-8.9,8.9-8.9s8.9,4,8.9,8.9S87,69.3,82.1,69.3z M82.1,56.3
			c-2.3,0-4.2,1.9-4.2,4.2c0,2.3,1.9,4.2,4.2,4.2c2.3,0,4.2-1.9,4.2-4.2C86.3,58.1,84.4,56.3,82.1,56.3z"/>
	</g>
	<g id="XMLID_65_">
		<path id="XMLID_102_" class="st0" d="M98.7,103.7h-4.7V77.6c0-2.8-2.3-5.1-5.1-5.1H75.2c-2.8,0-5.1,2.3-5.1,5.1v26.2h-4.7V77.6
			c0-5.4,4.4-9.8,9.8-9.8h13.6c5.4,0,9.8,4.4,9.8,9.8V103.7z"/>
	</g>
	<g id="XMLID_64_">
		<circle id="XMLID_125_" class="st0" cx="82.1" cy="70.2" r="1.4"/>
	</g>
	<g id="XMLID_63_">
		<rect id="XMLID_124_" x="81.3" y="72.4" class="st0" width="1.6" height="13.3"/>
	</g>
	<g id="XMLID_62_">
		<rect id="XMLID_123_" x="81.9" y="70.1" class="st0" width="0.4" height="6.4"/>
	</g>
	<g id="XMLID_61_">
		<rect id="XMLID_101_" x="70.5" y="78.1" class="st0" width="4.7" height="25.6"/>
	</g>
	<g id="XMLID_60_">
		<rect id="XMLID_100_" x="88.8" y="78.1" class="st0" width="4.7" height="25.6"/>
	</g>
	<g id="XMLID_59_">
		<path id="XMLID_97_" class="st0" d="M104.9,71.1c-4.3,0-7.8-3.5-7.8-7.8c0-4.3,3.5-7.8,7.8-7.8c4.3,0,7.8,3.5,7.8,7.8
			C112.8,67.6,109.2,71.1,104.9,71.1z M104.9,60.2c-1.7,0-3.1,1.4-3.1,3.1c0,1.7,1.4,3.1,3.1,3.1s3.1-1.4,3.1-3.1
			C108,61.6,106.6,60.2,104.9,60.2z"/>
	</g>
	<g id="XMLID_58_">
		<path id="XMLID_96_" class="st0" d="M118.2,103.7h-4.7V79.5c0-3-1.9-5.4-4.3-5.4h-12v-4.7h12c5,0,9,4.5,9,10.1V103.7z"/>
	</g>
	<g id="XMLID_57_">
		<rect id="XMLID_95_" x="107.8" y="81.9" class="st0" width="4.7" height="24"/>
	</g>
	<g id="XMLID_56_">
		<path id="XMLID_92_" class="st0" d="M58.9,71.2c-4.3,0-7.8-3.5-7.8-7.8c0-4.3,3.5-7.8,7.8-7.8s7.8,3.5,7.8,7.8
			C66.7,67.7,63.2,71.2,58.9,71.2z M58.9,60.3c-1.7,0-3.1,1.4-3.1,3.1c0,1.7,1.4,3.1,3.1,3.1s3.1-1.4,3.1-3.1
			C62,61.7,60.6,60.3,58.9,60.3z"/>
	</g>
	<g id="XMLID_55_">
		<path id="XMLID_91_" class="st0" d="M50.3,103.7h-4.7V79.6c0-5.6,4-10.1,9-10.1h12v4.7h-12c-2.3,0-4.3,2.4-4.3,5.4V103.7z"/>
	</g>
	<g id="XMLID_54_">
		
			<rect id="XMLID_90_" x="41.7" y="90.5" transform="matrix(4.659532e-004 1 -1 4.659532e-004 146.5455 39.1246)" class="st0" width="23.9" height="4.7"/>
	</g>
	<g id="XMLID_53_">
		<path id="XMLID_47_" class="st0" d="M218.2,105.6c-0.6,5.5-2.7,9.7-6.1,12.7c-3.4,3-7.9,4.5-13.6,4.5c-6.1,0-11.1-2.2-14.7-6.6
			c-3.7-4.4-5.5-10.3-5.5-17.7v-5c0-4.8,0.9-9.1,2.6-12.7c1.7-3.7,4.2-6.5,7.3-8.4c3.2-2,6.8-2.9,11-2.9c5.5,0,9.9,1.5,13.3,4.6
			c3.3,3.1,5.3,7.3,5.8,12.8h-6.9c-0.6-4.1-1.9-7.2-3.9-9c-2-1.9-4.8-2.8-8.3-2.8c-4.4,0-7.8,1.6-10.3,4.9
			c-2.5,3.2-3.7,7.8-3.7,13.8v5c0,5.6,1.2,10.1,3.5,13.5c2.4,3.3,5.6,5,9.9,5c3.8,0,6.7-0.9,8.8-2.6c2-1.7,3.4-4.7,4-9H218.2z"/>
		<path id="XMLID_72_" class="st0" d="M234.4,116.5H259v5.6h-31.5V70.1h6.9V116.5z"/>
		<path id="XMLID_74_" class="st0" d="M274.1,122.1h-6.8V70.1h6.8V122.1z"/>
		<path id="XMLID_76_" class="st0" d="M315.9,98.1h-22.5v18.4h26.1v5.6h-33V70.1h32.6v5.6h-25.8v16.7h22.5V98.1z"/>
		<path id="XMLID_78_" class="st0" d="M367.9,122.1H361l-26.1-40v40h-6.9V70.1h6.9l26.2,40.2V70.1h6.8V122.1z"/>
		<path id="XMLID_80_" class="st0" d="M414.8,75.7h-16.7v46.3h-6.8V75.7h-16.7v-5.6h40.2V75.7z"/>
		<path id="XMLID_82_" class="st0" d="M478.9,122.1h-6.9l-26.1-40v40H439V70.1h6.9l26.2,40.2V70.1h6.8V122.1z"/>
		<path id="XMLID_84_" class="st0" d="M520.4,98.1h-22.5v18.4H524v5.6h-33V70.1h32.6v5.6h-25.8v16.7h22.5V98.1z"/>
		<path id="XMLID_86_" class="st0" d="M547.8,98.9c-5.9-1.7-10.1-3.8-12.8-6.2c-2.7-2.5-4-5.5-4-9.1c0-4.1,1.6-7.5,4.9-10.1
			c3.3-2.7,7.5-4,12.8-4c3.6,0,6.7,0.7,9.5,2.1c2.8,1.4,5,3.3,6.5,5.7c1.5,2.4,2.3,5.1,2.3,8H560c0-3.2-1-5.6-3-7.4
			c-2-1.8-4.8-2.7-8.5-2.7c-3.4,0-6,0.7-7.9,2.2c-1.9,1.5-2.8,3.6-2.8,6.2c0,2.1,0.9,3.9,2.7,5.4s4.9,2.8,9.2,4
			c4.3,1.2,7.7,2.6,10.1,4c2.4,1.5,4.2,3.2,5.4,5.1c1.2,1.9,1.8,4.2,1.8,6.9c0,4.2-1.6,7.6-4.9,10.1c-3.3,2.5-7.7,3.8-13.2,3.8
			c-3.6,0-6.9-0.7-10-2.1c-3.1-1.4-5.5-3.2-7.2-5.6c-1.7-2.4-2.5-5.1-2.5-8.1h6.9c0,3.1,1.2,5.6,3.5,7.4c2.3,1.8,5.4,2.7,9.3,2.7
			c3.6,0,6.4-0.7,8.3-2.2c1.9-1.5,2.9-3.5,2.9-6s-0.9-4.5-2.7-5.9C555.7,101.7,552.5,100.3,547.8,98.9z"/>
		<path id="XMLID_88_" class="st0" d="M611.6,75.7h-16.7v46.3h-6.8V75.7h-16.7v-5.6h40.2V75.7z"/>
	</g>
	<g id="XMLID_52_">
		<path id="XMLID_4_" class="st0" d="M247.4,157.4h-4.9v8h-2.8v-19.8h6.9c2.4,0,4.2,0.5,5.5,1.5c1.3,1,1.9,2.5,1.9,4.4
			c0,1.2-0.4,2.3-1.1,3.2c-0.7,0.9-1.7,1.6-2.9,2.1l4.9,8.4v0.2h-3L247.4,157.4z M242.5,155.2h4.3c1.4,0,2.5-0.3,3.3-1
			c0.8-0.7,1.2-1.6,1.2-2.7c0-1.2-0.4-2.2-1.2-2.8c-0.8-0.7-1.9-1-3.4-1h-4.2V155.2z"/>
		<path id="XMLID_7_" class="st0" d="M264,165.7c-2.1,0-3.8-0.7-5.2-2c-1.3-1.3-2-3.1-2-5.3V158c0-1.5,0.3-2.8,0.9-3.9
			c0.6-1.1,1.4-2,2.5-2.7c1.1-0.6,2.2-1,3.5-1c2,0,3.6,0.6,4.7,1.9c1.1,1.3,1.7,3.1,1.7,5.4v1h-10.6c0,1.5,0.5,2.6,1.3,3.5
			c0.9,0.9,2,1.3,3.3,1.3c0.9,0,1.7-0.2,2.4-0.5c0.7-0.4,1.2-0.8,1.7-1.4l1.6,1.2C268.5,164.7,266.6,165.7,264,165.7z M263.6,152.5
			c-1.1,0-2,0.4-2.7,1.1s-1.2,1.8-1.4,3.1h7.8v-0.2c-0.1-1.3-0.4-2.3-1.1-3C265.6,152.8,264.8,152.5,263.6,152.5z"/>
		<path id="XMLID_10_" class="st0" d="M282.8,165.4c-0.2-0.3-0.3-0.8-0.4-1.6c-1.2,1.2-2.7,1.8-4.4,1.8c-1.5,0-2.8-0.4-3.8-1.2
			c-1-0.8-1.5-1.9-1.5-3.1c0-1.5,0.6-2.7,1.9-3.6c1.2-0.8,3-1.3,5.2-1.3h2.6v-1.2c0-0.9-0.3-1.6-0.8-2.1c-0.6-0.5-1.4-0.8-2.5-0.8
			c-1,0-1.7,0.2-2.4,0.7c-0.6,0.5-1,1-1,1.6H273c0-0.7,0.3-1.4,0.8-2.1c0.6-0.7,1.3-1.2,2.2-1.6c0.9-0.4,2-0.6,3.1-0.6
			c1.8,0,3.2,0.4,4.2,1.3c1,0.8,1.5,2,1.6,3.5v6.8c0,1.4,0.2,2.4,0.5,3.2v0.2H282.8z M278.3,163.5c0.8,0,1.6-0.2,2.4-0.6
			s1.3-0.9,1.6-1.6v-3h-2.1c-3.3,0-4.9,0.9-4.9,2.7c0,0.8,0.3,1.4,0.8,1.9C276.8,163.3,277.5,163.5,278.3,163.5z"/>
		<path id="XMLID_13_" class="st0" d="M295.5,163.6c1,0,1.8-0.3,2.5-0.8c0.7-0.5,1.1-1.2,1.2-2h2.5c0,0.8-0.4,1.6-0.9,2.4
			c-0.6,0.8-1.3,1.4-2.3,1.8c-0.9,0.5-1.9,0.7-3,0.7c-2.1,0-3.8-0.7-5.1-2c-1.3-1.3-1.9-3.2-1.9-5.5v-0.4c0-1.4,0.3-2.7,0.8-3.8
			c0.6-1.1,1.4-2,2.4-2.6s2.3-0.9,3.7-0.9c1.7,0,3.2,0.5,4.4,1.5c1.2,1,1.8,2.3,1.9,3.9h-2.5c-0.1-1-0.5-1.7-1.1-2.3
			c-0.7-0.6-1.5-0.9-2.5-0.9c-1.4,0-2.4,0.5-3.1,1.4c-0.7,0.9-1.1,2.3-1.1,4v0.5c0,1.7,0.4,3,1.1,3.9
			C293,163.2,294.1,163.6,295.5,163.6z"/>
		<path id="XMLID_15_" class="st0" d="M307.3,152.4c1.2-1.4,2.7-2.1,4.6-2.1c3.3,0,5,1.8,5,5.3v9.7h-2.7v-9.7c0-1.1-0.3-1.8-0.8-2.4
			c-0.5-0.5-1.3-0.8-2.4-0.8c-0.9,0-1.6,0.2-2.3,0.7c-0.7,0.4-1.2,1-1.5,1.7v10.5h-2.7v-20.9h2.7V152.4z"/>
		<path id="XMLID_17_" class="st0" d="M320.9,146.8c0-0.4,0.1-0.8,0.4-1c0.3-0.3,0.7-0.4,1.2-0.4c0.5,0,0.9,0.1,1.2,0.4
			c0.3,0.3,0.4,0.6,0.4,1s-0.1,0.7-0.4,1c-0.3,0.3-0.7,0.4-1.2,0.4c-0.5,0-0.9-0.1-1.2-0.4C321.1,147.5,320.9,147.2,320.9,146.8z
			 M323.8,165.4h-2.7v-14.7h2.7V165.4z"/>
		<path id="XMLID_20_" class="st0" d="M330.6,150.7l0.1,1.9c1.2-1.4,2.7-2.1,4.7-2.1c3.3,0,5,1.8,5,5.3v9.7h-2.7v-9.7
			c0-1.1-0.3-1.8-0.8-2.4c-0.5-0.5-1.3-0.8-2.4-0.8c-0.9,0-1.6,0.2-2.3,0.7c-0.7,0.4-1.2,1-1.5,1.7v10.5h-2.7v-14.7H330.6z"/>
		<path id="XMLID_22_" class="st0" d="M343.7,157.9c0-2.3,0.6-4.1,1.7-5.5c1.1-1.4,2.6-2,4.5-2c1.9,0,3.4,0.6,4.5,1.9l0.1-1.6h2.4
			V165c0,1.9-0.6,3.4-1.8,4.5c-1.2,1.1-2.8,1.6-4.8,1.6c-1.1,0-2.2-0.2-3.3-0.7c-1.1-0.5-1.9-1.1-2.5-1.9l1.4-1.5
			c1.1,1.3,2.5,2,4.2,2c1.3,0,2.3-0.3,3-1c0.7-0.7,1.1-1.7,1.1-2.9v-1.3c-1.1,1.2-2.5,1.7-4.4,1.7c-1.8,0-3.3-0.7-4.4-2.1
			C344.3,162.2,343.7,160.3,343.7,157.9z M346.4,158.2c0,1.7,0.4,3,1.1,3.9c0.7,0.9,1.7,1.4,3,1.4c1.7,0,2.9-0.7,3.7-2.2v-6.7
			c-0.8-1.4-2-2.1-3.7-2.1c-1.3,0-2.3,0.5-3,1.4C346.8,154.9,346.4,156.3,346.4,158.2z"/>
		<path id="XMLID_25_" class="st0" d="M384.8,156.1c0,1.9-0.3,3.6-1,5.1c-0.7,1.4-1.7,2.6-2.9,3.3c-1.3,0.8-2.7,1.1-4.4,1.1
			c-1.7,0-3.1-0.4-4.4-1.2c-1.3-0.8-2.3-1.9-3-3.3c-0.7-1.4-1.1-3.1-1.1-4.9v-1.4c0-1.9,0.4-3.6,1.1-5.1c0.7-1.5,1.7-2.6,3-3.4
			c1.3-0.8,2.8-1.2,4.4-1.2c1.7,0,3.2,0.4,4.4,1.2c1.3,0.8,2.3,1.9,3,3.3c0.7,1.5,1,3.2,1,5.1V156.1z M382,154.8
			c0-2.4-0.5-4.2-1.5-5.4s-2.4-1.9-4.2-1.9c-1.7,0-3.1,0.6-4.1,1.9c-1,1.3-1.5,3-1.5,5.2v1.5c0,2.3,0.5,4.1,1.5,5.4
			c1,1.3,2.4,2,4.2,2c1.8,0,3.2-0.6,4.2-1.8c1-1.2,1.5-3,1.5-5.3V154.8z"/>
		<path id="XMLID_28_" class="st0" d="M398.2,163.9c-1,1.2-2.6,1.7-4.6,1.7c-1.7,0-2.9-0.5-3.8-1.4c-0.9-0.9-1.3-2.3-1.3-4.1v-9.6
			h2.7v9.5c0,2.2,1,3.3,2.9,3.3c2,0,3.4-0.7,4.1-2.2v-10.7h2.7v14.7h-2.5L398.2,163.9z"/>
		<path id="XMLID_30_" class="st0" d="M408.4,147.1v3.6h2.9v1.9h-2.9v9.1c0,0.6,0.1,1,0.4,1.3c0.3,0.3,0.7,0.4,1.3,0.4
			c0.3,0,0.7-0.1,1.3-0.2v2c-0.7,0.2-1.4,0.3-2,0.3c-1.2,0-2.1-0.3-2.7-1c-0.6-0.7-0.9-1.6-0.9-2.9v-9.1h-2.8v-1.9h2.8v-3.6H408.4z"
			/>
		<path id="XMLID_32_" class="st0" d="M438.3,156.1c0,1.9-0.3,3.6-1,5.1c-0.7,1.4-1.7,2.6-2.9,3.3c-1.3,0.8-2.7,1.1-4.4,1.1
			c-1.7,0-3.1-0.4-4.4-1.2s-2.3-1.9-3-3.3c-0.7-1.4-1.1-3.1-1.1-4.9v-1.4c0-1.9,0.4-3.6,1.1-5.1c0.7-1.5,1.7-2.6,3-3.4
			c1.3-0.8,2.8-1.2,4.4-1.2c1.7,0,3.2,0.4,4.4,1.2c1.3,0.8,2.3,1.9,3,3.3c0.7,1.5,1,3.2,1,5.1V156.1z M435.6,154.8
			c0-2.4-0.5-4.2-1.5-5.4s-2.4-1.9-4.2-1.9c-1.7,0-3.1,0.6-4.1,1.9c-1,1.3-1.5,3-1.5,5.2v1.5c0,2.3,0.5,4.1,1.5,5.4
			c1,1.3,2.4,2,4.2,2c1.8,0,3.2-0.6,4.2-1.8c1-1.2,1.5-3,1.5-5.3V154.8z"/>
		<path id="XMLID_35_" class="st0" d="M444.6,150.7l0.1,1.9c1.2-1.4,2.7-2.1,4.7-2.1c3.3,0,5,1.8,5,5.3v9.7h-2.7v-9.7
			c0-1.1-0.3-1.8-0.8-2.4c-0.5-0.5-1.3-0.8-2.4-0.8c-0.9,0-1.6,0.2-2.3,0.7c-0.7,0.4-1.2,1-1.5,1.7v10.5H442v-14.7H444.6z"/>
		<path id="XMLID_37_" class="st0" d="M480,147.7h-6.7v17.7h-2.8v-17.7h-6.7v-2.1H480V147.7z"/>
		<path id="XMLID_39_" class="st0" d="M482.7,146.8c0-0.4,0.1-0.8,0.4-1c0.3-0.3,0.7-0.4,1.2-0.4c0.5,0,0.9,0.1,1.2,0.4
			c0.3,0.3,0.4,0.6,0.4,1s-0.1,0.7-0.4,1c-0.3,0.3-0.7,0.4-1.2,0.4c-0.5,0-0.9-0.1-1.2-0.4C482.8,147.5,482.7,147.2,482.7,146.8z
			 M485.6,165.4h-2.7v-14.7h2.7V165.4z"/>
		<path id="XMLID_42_" class="st0" d="M492.3,150.7l0.1,1.6c1.1-1.3,2.7-1.9,4.6-1.9c2.2,0,3.7,0.8,4.5,2.4c0.5-0.7,1.2-1.3,2-1.7
			c0.8-0.4,1.8-0.7,2.9-0.7c3.4,0,5.2,1.7,5.2,5.1v9.9H509v-9.7c0-1.1-0.3-1.8-0.8-2.4c-0.5-0.5-1.4-0.8-2.6-0.8
			c-1,0-1.8,0.3-2.5,0.8c-0.7,0.6-1,1.3-1.1,2.3v9.8h-2.7v-9.7c0-2.1-1.1-3.2-3.3-3.2c-1.7,0-2.9,0.7-3.6,2.1v10.8h-2.7v-14.7H492.3
			z"/>
		<path id="XMLID_44_" class="st0" d="M522.2,165.7c-2.1,0-3.8-0.7-5.2-2c-1.3-1.3-2-3.1-2-5.3V158c0-1.5,0.3-2.8,0.9-3.9
			c0.6-1.1,1.4-2,2.5-2.7c1.1-0.6,2.2-1,3.5-1c2,0,3.6,0.6,4.7,1.9c1.1,1.3,1.7,3.1,1.7,5.4v1h-10.6c0,1.5,0.5,2.6,1.3,3.5
			c0.9,0.9,2,1.3,3.3,1.3c0.9,0,1.7-0.2,2.4-0.5c0.7-0.4,1.2-0.8,1.7-1.4l1.6,1.2C526.8,164.7,524.8,165.7,522.2,165.7z
			 M521.9,152.5c-1.1,0-2,0.4-2.7,1.1c-0.7,0.7-1.2,1.8-1.4,3.1h7.8v-0.2c-0.1-1.3-0.4-2.3-1.1-3C523.9,152.8,523,152.5,521.9,152.5
			z"/>
	</g>
	<g id="XMLID_51_">
		<path id="XMLID_122_" class="st0" d="M620.6,158.1l-80.5,2.3c-1.7,0-3.1-1-3.1-2.3v0c0-1.2,1.4-2.3,3.1-2.3L620.6,158.1"/>
	</g>
	<g id="XMLID_50_">
		<path id="XMLID_121_" class="st0" d="M147.7,158.4l80.5,2.3c1.7,0,3.1-1,3.1-2.3v0c0-1.2-1.4-2.3-3.1-2.3L147.7,158.4"/>
	</g>
	<g id="XMLID_49_">
		<line id="XMLID_3_" class="st1" x1="336.8" y1="140.3" x2="336.8" y2="140.3"/>
	</g>
</g>
</svg>
