<?xml version="1.0" encoding="utf-8"?>
<!-- Generator: Adobe Illustrator 19.0.0, SVG Export Plug-In . SVG Version: 6.00 Build 0)  -->
<svg version="1.1" id="Layer_1" xmlns="http://www.w3.org/2000/svg" xmlns:xlink="http://www.w3.org/1999/xlink" x="0px" y="0px"
	 viewBox="0 0 496 327" style="enable-background:new 0 0 496 327;" xml:space="preserve">
<style type="text/css">
	.st0{fill:#334960;}
	.st1{fill:#010101;}
</style>
<g id="XMLID_71_">
	<path id="XMLID_110_" class="st0" d="M247,165c-40.2,0-72.9-32.7-72.9-72.9s32.7-72.9,72.9-72.9c40.2,0,72.9,32.7,72.9,72.9
		S287.2,165,247,165z M247,24.1c-37.6,0-68.1,30.6-68.1,68.1s30.6,68.1,68.1,68.1c37.6,0,68.1-30.6,68.1-68.1S284.6,24.1,247,24.1z"
		/>
</g>
<g id="XMLID_70_">
	<path id="XMLID_129_" class="st0" d="M245.6,114.4c-27-2.2-49.9-14.2-59.1-29.4c5.9,17,29.9,31.3,58.9,33.6
		c29,2.4,53.6-7.9,60.4-23.8C296,108.4,272.7,116.6,245.6,114.4z"/>
</g>
<g id="XMLID_69_">
	<path id="XMLID_128_" class="st0" d="M241.7,125.1c-26.6-7.3-47.9-23.5-55.1-40.1c3.8,17.8,26,36.4,54.5,44.2
		c28.5,7.8,54.2,2.4,62.9-12C292.5,128.7,268.3,132.4,241.7,125.1z"/>
</g>
<g id="XMLID_68_">
	<path id="XMLID_127_" class="st0" d="M251.1,118.7c-25.6,10.2-50,9.3-62.6-0.9c10.1,13.4,36.1,15.9,63.6,4.9
		c27.5-11,47.5-32,49.5-50.2C296.2,90,276.7,108.5,251.1,118.7z"/>
</g>
<g id="XMLID_67_">
	<path id="XMLID_126_" class="st0" d="M250.3,130.7c-26.6,5.2-50.6-0.4-61.8-12.8c8.3,15.1,33.8,22.6,62.4,17
		c28.5-5.6,50.9-22.5,55-40.1C298.4,110.9,276.9,125.4,250.3,130.7z"/>
</g>
<g id="XMLID_66_">
	<path id="XMLID_103_" class="st0" d="M244.9,67.9c-4.9,0-8.9-4-8.9-8.9s4-8.9,8.9-8.9s8.9,4,8.9,8.9S249.8,67.9,244.9,67.9z
		 M244.9,54.8c-2.3,0-4.2,1.9-4.2,4.2c0,2.3,1.9,4.2,4.2,4.2c2.3,0,4.2-1.9,4.2-4.2C249.1,56.7,247.2,54.8,244.9,54.8z"/>
</g>
<g id="XMLID_65_">
	<path id="XMLID_102_" class="st0" d="M261.4,102.3h-4.7V76.1c0-2.8-2.3-5.1-5.1-5.1H238c-2.8,0-5.1,2.3-5.1,5.1v26.2h-4.7V76.1
		c0-5.4,4.4-9.8,9.8-9.8h13.6c5.4,0,9.8,4.4,9.8,9.8V102.3z"/>
</g>
<g id="XMLID_64_">
	<circle id="XMLID_125_" class="st0" cx="244.9" cy="68.7" r="1.4"/>
</g>
<g id="XMLID_63_">
	<rect id="XMLID_124_" x="244.1" y="70.9" class="st0" width="1.6" height="13.3"/>
</g>
<g id="XMLID_62_">
	<rect id="XMLID_123_" x="244.7" y="68.6" class="st0" width="0.4" height="6.4"/>
</g>
<g id="XMLID_61_">
	<rect id="XMLID_101_" x="233.3" y="76.6" class="st0" width="4.7" height="25.6"/>
</g>
<g id="XMLID_60_">
	<rect id="XMLID_100_" x="251.6" y="76.6" class="st0" width="4.7" height="25.6"/>
</g>
<g id="XMLID_59_">
	<path id="XMLID_97_" class="st0" d="M267.7,69.7c-4.3,0-7.8-3.5-7.8-7.8c0-4.3,3.5-7.8,7.8-7.8s7.8,3.5,7.8,7.8
		C275.5,66.1,272,69.7,267.7,69.7z M267.7,58.7c-1.7,0-3.1,1.4-3.1,3.1c0,1.7,1.4,3.1,3.1,3.1c1.7,0,3.1-1.4,3.1-3.1
		C270.8,60.1,269.4,58.7,267.7,58.7z"/>
</g>
<g id="XMLID_58_">
	<path id="XMLID_96_" class="st0" d="M281,102.3h-4.7V78.1c0-3-1.9-5.4-4.3-5.4h-12V68h12c5,0,9,4.5,9,10.1V102.3z"/>
</g>
<g id="XMLID_57_">
	<rect id="XMLID_95_" x="270.5" y="80.4" class="st0" width="4.7" height="24"/>
</g>
<g id="XMLID_56_">
	<path id="XMLID_92_" class="st0" d="M221.7,69.7c-4.3,0-7.8-3.5-7.8-7.8c0-4.3,3.5-7.8,7.8-7.8s7.8,3.5,7.8,7.8
		C229.5,66.2,226,69.7,221.7,69.7z M221.7,58.8c-1.7,0-3.1,1.4-3.1,3.1c0,1.7,1.4,3.1,3.1,3.1s3.1-1.4,3.1-3.1
		C224.8,60.2,223.4,58.8,221.7,58.8z"/>
</g>
<g id="XMLID_55_">
	<path id="XMLID_91_" class="st0" d="M213.1,102.3h-4.7V78.1c0-5.6,4-10.1,9-10.1h12v4.7h-12c-2.3,0-4.3,2.4-4.3,5.4V102.3z"/>
</g>
<g id="XMLID_54_">
	
		<rect id="XMLID_90_" x="204.5" y="89" transform="matrix(4.659532e-004 1 -1 4.659532e-004 307.7769 -125.1366)" class="st0" width="23.9" height="4.7"/>
</g>
<g id="XMLID_53_">
	<path id="XMLID_47_" class="st0" d="M70.5,247.6c-0.6,5.5-2.7,9.7-6.1,12.7c-3.4,3-7.9,4.5-13.6,4.5c-6.1,0-11.1-2.2-14.7-6.6
		c-3.7-4.4-5.5-10.3-5.5-17.7v-5c0-4.8,0.9-9.1,2.6-12.7c1.7-3.7,4.2-6.5,7.3-8.4c3.2-2,6.8-2.9,11-2.9c5.5,0,9.9,1.5,13.3,4.6
		c3.3,3.1,5.3,7.3,5.8,12.8h-6.9c-0.6-4.1-1.9-7.2-3.9-9c-2-1.9-4.8-2.8-8.3-2.8c-4.4,0-7.8,1.6-10.3,4.9c-2.5,3.2-3.7,7.8-3.7,13.8
		v5c0,5.6,1.2,10.1,3.5,13.5c2.4,3.3,5.6,5,9.9,5c3.8,0,6.7-0.9,8.8-2.6c2-1.7,3.4-4.7,4-9H70.5z"/>
	<path id="XMLID_72_" class="st0" d="M86.7,258.5h24.6v5.6H79.8v-51.9h6.9V258.5z"/>
	<path id="XMLID_74_" class="st0" d="M126.4,264.1h-6.8v-51.9h6.8V264.1z"/>
	<path id="XMLID_76_" class="st0" d="M168.2,240.1h-22.5v18.4h26.1v5.6h-33v-51.9h32.6v5.6h-25.8v16.7h22.5V240.1z"/>
	<path id="XMLID_78_" class="st0" d="M220.2,264.1h-6.9l-26.1-40v40h-6.9v-51.9h6.9l26.2,40.2v-40.2h6.8V264.1z"/>
	<path id="XMLID_80_" class="st0" d="M267.1,217.7h-16.7v46.3h-6.8v-46.3H227v-5.6h40.2V217.7z"/>
	<path id="XMLID_82_" class="st0" d="M331.3,264.1h-6.9l-26.1-40v40h-6.9v-51.9h6.9l26.2,40.2v-40.2h6.8V264.1z"/>
	<path id="XMLID_84_" class="st0" d="M372.7,240.1h-22.5v18.4h26.1v5.6h-33v-51.9H376v5.6h-25.8v16.7h22.5V240.1z"/>
	<path id="XMLID_86_" class="st0" d="M400.1,240.9c-5.9-1.7-10.1-3.8-12.8-6.2c-2.7-2.5-4-5.5-4-9.1c0-4.1,1.6-7.5,4.9-10.1
		c3.3-2.7,7.5-4,12.8-4c3.6,0,6.7,0.7,9.5,2.1c2.8,1.4,5,3.3,6.5,5.7c1.5,2.4,2.3,5.1,2.3,8h-6.9c0-3.2-1-5.6-3-7.4
		c-2-1.8-4.8-2.7-8.5-2.7c-3.4,0-6,0.7-7.9,2.2c-1.9,1.5-2.8,3.6-2.8,6.2c0,2.1,0.9,3.9,2.7,5.4c1.8,1.5,4.9,2.8,9.2,4
		c4.3,1.2,7.7,2.6,10.1,4c2.4,1.5,4.2,3.2,5.4,5.1c1.2,1.9,1.8,4.2,1.8,6.9c0,4.2-1.6,7.6-4.9,10.1c-3.3,2.5-7.7,3.8-13.2,3.8
		c-3.6,0-6.9-0.7-10-2.1c-3.1-1.4-5.5-3.2-7.2-5.6c-1.7-2.4-2.5-5.1-2.5-8.1h6.9c0,3.1,1.2,5.6,3.5,7.4c2.3,1.8,5.4,2.7,9.3,2.7
		c3.6,0,6.4-0.7,8.3-2.2c1.9-1.5,2.9-3.5,2.9-6c0-2.5-0.9-4.5-2.7-5.9S404.8,242.3,400.1,240.9z"/>
	<path id="XMLID_88_" class="st0" d="M463.9,217.7h-16.7v46.3h-6.8v-46.3h-16.7v-5.6h40.2V217.7z"/>
</g>
<g id="XMLID_52_">
	<path id="XMLID_4_" class="st0" d="M109.8,299.4h-4.9v8H102v-19.8h6.9c2.4,0,4.2,0.5,5.5,1.5c1.3,1,1.9,2.5,1.9,4.4
		c0,1.2-0.4,2.3-1.1,3.2c-0.7,0.9-1.7,1.6-2.9,2.1l4.9,8.4v0.2h-3L109.8,299.4z M104.8,297.2h4.3c1.4,0,2.5-0.3,3.3-1
		c0.8-0.7,1.2-1.6,1.2-2.7c0-1.2-0.4-2.2-1.2-2.8c-0.8-0.7-1.9-1-3.4-1h-4.2V297.2z"/>
	<path id="XMLID_7_" class="st0" d="M126.3,307.7c-2.1,0-3.8-0.7-5.2-2c-1.3-1.3-2-3.1-2-5.3V300c0-1.5,0.3-2.8,0.9-3.9
		c0.6-1.1,1.4-2,2.5-2.7c1.1-0.6,2.2-1,3.5-1c2,0,3.6,0.6,4.7,1.9c1.1,1.3,1.7,3.1,1.7,5.4v1h-10.6c0,1.5,0.5,2.6,1.3,3.5
		c0.9,0.9,2,1.3,3.3,1.3c0.9,0,1.7-0.2,2.4-0.5c0.7-0.4,1.2-0.8,1.7-1.4l1.6,1.2C130.9,306.7,128.9,307.7,126.3,307.7z M126,294.5
		c-1.1,0-2,0.4-2.7,1.1c-0.7,0.7-1.2,1.8-1.4,3.1h7.8v-0.2c-0.1-1.3-0.4-2.3-1.1-3C128,294.8,127.1,294.5,126,294.5z"/>
	<path id="XMLID_10_" class="st0" d="M145.1,307.4c-0.2-0.3-0.3-0.8-0.4-1.6c-1.2,1.2-2.7,1.8-4.4,1.8c-1.5,0-2.8-0.4-3.8-1.2
		c-1-0.8-1.5-1.9-1.5-3.1c0-1.5,0.6-2.7,1.9-3.6c1.2-0.8,3-1.3,5.2-1.3h2.6v-1.2c0-0.9-0.3-1.6-0.8-2.1c-0.6-0.5-1.4-0.8-2.5-0.8
		c-1,0-1.7,0.2-2.4,0.7c-0.6,0.5-1,1-1,1.6h-2.7c0-0.7,0.3-1.4,0.8-2.1c0.6-0.7,1.3-1.2,2.2-1.6c0.9-0.4,2-0.6,3.1-0.6
		c1.8,0,3.2,0.4,4.2,1.3c1,0.8,1.5,2,1.6,3.5v6.8c0,1.4,0.2,2.4,0.5,3.2v0.2H145.1z M140.7,305.5c0.8,0,1.6-0.2,2.4-0.6
		c0.7-0.4,1.3-0.9,1.6-1.6v-3h-2.1c-3.3,0-4.9,0.9-4.9,2.7c0,0.8,0.3,1.4,0.8,1.9C139.1,305.3,139.8,305.5,140.7,305.5z"/>
	<path id="XMLID_13_" class="st0" d="M157.8,305.6c1,0,1.8-0.3,2.5-0.8c0.7-0.5,1.1-1.2,1.2-2h2.5c0,0.8-0.4,1.6-0.9,2.4
		c-0.6,0.8-1.3,1.4-2.3,1.8c-0.9,0.5-1.9,0.7-3,0.7c-2.1,0-3.8-0.7-5.1-2c-1.3-1.3-1.9-3.2-1.9-5.5v-0.4c0-1.4,0.3-2.7,0.8-3.8
		c0.6-1.1,1.4-2,2.4-2.6c1-0.6,2.3-0.9,3.7-0.9c1.7,0,3.2,0.5,4.4,1.5c1.2,1,1.8,2.3,1.9,3.9h-2.5c-0.1-1-0.5-1.7-1.1-2.3
		c-0.7-0.6-1.5-0.9-2.5-0.9c-1.4,0-2.4,0.5-3.1,1.4c-0.7,0.9-1.1,2.3-1.1,4v0.5c0,1.7,0.4,3,1.1,3.9
		C155.3,305.2,156.4,305.6,157.8,305.6z"/>
	<path id="XMLID_15_" class="st0" d="M169.6,294.4c1.2-1.4,2.7-2.1,4.6-2.1c3.3,0,5,1.8,5,5.3v9.7h-2.7v-9.7c0-1.1-0.3-1.8-0.8-2.4
		c-0.5-0.5-1.3-0.8-2.4-0.8c-0.9,0-1.6,0.2-2.3,0.7c-0.7,0.4-1.2,1-1.5,1.7v10.5H167v-20.9h2.7V294.4z"/>
	<path id="XMLID_17_" class="st0" d="M183.2,288.8c0-0.4,0.1-0.8,0.4-1c0.3-0.3,0.7-0.4,1.2-0.4c0.5,0,0.9,0.1,1.2,0.4
		c0.3,0.3,0.4,0.6,0.4,1c0,0.4-0.1,0.7-0.4,1c-0.3,0.3-0.7,0.4-1.2,0.4c-0.5,0-0.9-0.1-1.2-0.4C183.4,289.5,183.2,289.2,183.2,288.8
		z M186.1,307.4h-2.7v-14.7h2.7V307.4z"/>
	<path id="XMLID_20_" class="st0" d="M192.9,292.7l0.1,1.9c1.2-1.4,2.7-2.1,4.7-2.1c3.3,0,5,1.8,5,5.3v9.7H200v-9.7
		c0-1.1-0.3-1.8-0.8-2.4c-0.5-0.5-1.3-0.8-2.4-0.8c-0.9,0-1.6,0.2-2.3,0.7c-0.7,0.4-1.2,1-1.5,1.7v10.5h-2.7v-14.7H192.9z"/>
	<path id="XMLID_22_" class="st0" d="M206,299.9c0-2.3,0.6-4.1,1.7-5.5c1.1-1.4,2.6-2,4.5-2c1.9,0,3.4,0.6,4.5,1.9l0.1-1.6h2.4V307
		c0,1.9-0.6,3.4-1.8,4.5c-1.2,1.1-2.8,1.6-4.8,1.6c-1.1,0-2.2-0.2-3.3-0.7c-1.1-0.5-1.9-1.1-2.5-1.9l1.4-1.5c1.1,1.3,2.5,2,4.2,2
		c1.3,0,2.3-0.3,3-1c0.7-0.7,1.1-1.7,1.1-2.9v-1.3c-1.1,1.2-2.5,1.7-4.4,1.7c-1.8,0-3.3-0.7-4.4-2.1
		C206.6,304.2,206,302.3,206,299.9z M208.7,300.2c0,1.7,0.4,3,1.1,3.9c0.7,0.9,1.7,1.4,3,1.4c1.7,0,2.9-0.7,3.7-2.2v-6.7
		c-0.8-1.4-2-2.1-3.7-2.1c-1.3,0-2.3,0.5-3,1.4C209.1,296.9,208.7,298.3,208.7,300.2z"/>
	<path id="XMLID_25_" class="st0" d="M247.1,298.1c0,1.9-0.3,3.6-1,5.1c-0.7,1.4-1.7,2.6-2.9,3.3c-1.3,0.8-2.7,1.1-4.4,1.1
		c-1.7,0-3.1-0.4-4.4-1.2c-1.3-0.8-2.3-1.9-3-3.3c-0.7-1.4-1.1-3.1-1.1-4.9v-1.4c0-1.9,0.4-3.6,1.1-5.1c0.7-1.5,1.7-2.6,3-3.4
		c1.3-0.8,2.8-1.2,4.4-1.2c1.7,0,3.2,0.4,4.4,1.2c1.3,0.8,2.3,1.9,3,3.3c0.7,1.5,1,3.2,1,5.1V298.1z M244.4,296.8
		c0-2.4-0.5-4.2-1.5-5.4c-1-1.3-2.4-1.9-4.2-1.9c-1.7,0-3.1,0.6-4.1,1.9c-1,1.3-1.5,3-1.5,5.2v1.5c0,2.3,0.5,4.1,1.5,5.4
		c1,1.3,2.4,2,4.2,2c1.8,0,3.2-0.6,4.2-1.8c1-1.2,1.5-3,1.5-5.3V296.8z"/>
	<path id="XMLID_28_" class="st0" d="M260.5,305.9c-1,1.2-2.6,1.7-4.6,1.7c-1.7,0-2.9-0.5-3.8-1.4c-0.9-0.9-1.3-2.3-1.3-4.1v-9.6
		h2.7v9.5c0,2.2,1,3.3,2.9,3.3c2,0,3.4-0.7,4.1-2.2v-10.7h2.7v14.7h-2.5L260.5,305.9z"/>
	<path id="XMLID_30_" class="st0" d="M270.7,289.1v3.6h2.9v1.9h-2.9v9.1c0,0.6,0.1,1,0.4,1.3c0.3,0.3,0.7,0.4,1.3,0.4
		c0.3,0,0.7-0.1,1.3-0.2v2c-0.7,0.2-1.4,0.3-2,0.3c-1.2,0-2.1-0.3-2.7-1c-0.6-0.7-0.9-1.6-0.9-2.9v-9.1h-2.8v-1.9h2.8v-3.6H270.7z"
		/>
	<path id="XMLID_32_" class="st0" d="M300.6,298.1c0,1.9-0.3,3.6-1,5.1c-0.7,1.4-1.7,2.6-2.9,3.3c-1.3,0.8-2.7,1.1-4.4,1.1
		c-1.7,0-3.1-0.4-4.4-1.2s-2.3-1.9-3-3.3c-0.7-1.4-1.1-3.1-1.1-4.9v-1.4c0-1.9,0.4-3.6,1.1-5.1c0.7-1.5,1.7-2.6,3-3.4
		c1.3-0.8,2.8-1.2,4.4-1.2c1.7,0,3.2,0.4,4.4,1.2c1.3,0.8,2.3,1.9,3,3.3c0.7,1.5,1,3.2,1,5.1V298.1z M297.9,296.8
		c0-2.4-0.5-4.2-1.5-5.4c-1-1.3-2.4-1.9-4.2-1.9c-1.7,0-3.1,0.6-4.1,1.9c-1,1.3-1.5,3-1.5,5.2v1.5c0,2.3,0.5,4.1,1.5,5.4
		c1,1.3,2.4,2,4.2,2c1.8,0,3.2-0.6,4.2-1.8c1-1.2,1.5-3,1.5-5.3V296.8z"/>
	<path id="XMLID_35_" class="st0" d="M306.9,292.7l0.1,1.9c1.2-1.4,2.7-2.1,4.7-2.1c3.3,0,5,1.8,5,5.3v9.7H314v-9.7
		c0-1.1-0.3-1.8-0.8-2.4c-0.5-0.5-1.3-0.8-2.4-0.8c-0.9,0-1.6,0.2-2.3,0.7c-0.7,0.4-1.2,1-1.5,1.7v10.5h-2.7v-14.7H306.9z"/>
	<path id="XMLID_37_" class="st0" d="M342.3,289.7h-6.7v17.7h-2.8v-17.7h-6.7v-2.1h16.2V289.7z"/>
	<path id="XMLID_39_" class="st0" d="M345,288.8c0-0.4,0.1-0.8,0.4-1c0.3-0.3,0.7-0.4,1.2-0.4c0.5,0,0.9,0.1,1.2,0.4
		c0.3,0.3,0.4,0.6,0.4,1c0,0.4-0.1,0.7-0.4,1c-0.3,0.3-0.7,0.4-1.2,0.4c-0.5,0-0.9-0.1-1.2-0.4C345.1,289.5,345,289.2,345,288.8z
		 M347.9,307.4h-2.7v-14.7h2.7V307.4z"/>
	<path id="XMLID_42_" class="st0" d="M354.7,292.7l0.1,1.6c1.1-1.3,2.7-1.9,4.6-1.9c2.2,0,3.7,0.8,4.5,2.4c0.5-0.7,1.2-1.3,2-1.7
		c0.8-0.4,1.8-0.7,2.9-0.7c3.4,0,5.2,1.7,5.2,5.1v9.9h-2.7v-9.7c0-1.1-0.3-1.8-0.8-2.4c-0.5-0.5-1.4-0.8-2.6-0.8
		c-1,0-1.8,0.3-2.5,0.8c-0.7,0.6-1,1.3-1.1,2.3v9.8h-2.7v-9.7c0-2.1-1.1-3.2-3.3-3.2c-1.7,0-2.9,0.7-3.6,2.1v10.8h-2.7v-14.7H354.7z
		"/>
	<path id="XMLID_44_" class="st0" d="M384.5,307.7c-2.1,0-3.8-0.7-5.2-2c-1.3-1.3-2-3.1-2-5.3V300c0-1.5,0.3-2.8,0.9-3.9
		c0.6-1.1,1.4-2,2.5-2.7c1.1-0.6,2.2-1,3.5-1c2,0,3.6,0.6,4.7,1.9c1.1,1.3,1.7,3.1,1.7,5.4v1H380c0,1.5,0.5,2.6,1.3,3.5
		c0.9,0.9,2,1.3,3.3,1.3c0.9,0,1.7-0.2,2.4-0.5c0.7-0.4,1.2-0.8,1.7-1.4l1.6,1.2C389.1,306.7,387.1,307.7,384.5,307.7z M384.2,294.5
		c-1.1,0-2,0.4-2.7,1.1c-0.7,0.7-1.2,1.8-1.4,3.1h7.8v-0.2c-0.1-1.3-0.4-2.3-1.1-3C386.2,294.8,385.3,294.5,384.2,294.5z"/>
</g>
<g id="XMLID_51_">
	<path id="XMLID_122_" class="st0" d="M482.9,300.1l-80.5,2.3c-1.7,0-3.1-1-3.1-2.3l0,0c0-1.2,1.4-2.3,3.1-2.3L482.9,300.1"/>
</g>
<g id="XMLID_50_">
	<path id="XMLID_121_" class="st0" d="M10,300.4l80.5,2.3c1.7,0,3.1-1,3.1-2.3l0,0c0-1.2-1.4-2.3-3.1-2.3L10,300.4"/>
</g>
<g id="XMLID_49_">
	<line id="XMLID_3_" class="st1" x1="200.1" y1="282.3" x2="200.1" y2="282.3"/>
</g>
</svg>
