<?xml version="1.0" encoding="utf-8"?>
<!-- Generator: Adobe Illustrator 19.0.0, SVG Export Plug-In . SVG Version: 6.00 Build 0)  -->
<svg version="1.1" id="Layer_1" xmlns="http://www.w3.org/2000/svg" xmlns:xlink="http://www.w3.org/1999/xlink" x="0px" y="0px"
	 viewBox="0 0 700 192" style="enable-background:new 0 0 700 192;" xml:space="preserve">
<style type="text/css">
	.st0{fill:#ffffff;}
	.st1{fill:#ffffff;stroke:#ffffff;stroke-width:4;stroke-miterlimit:10;}
	.st2{fill:#ffffff;}
</style>
<g id="XMLID_1_">
	<g id="XMLID_70_">
		<path class="st0" d="M127.9,135.3c-49.5-4.1-91.4-26.1-108.2-53.8c10.9,31.1,54.8,57.2,108,61.6c53.1,4.4,98.2-14.5,110.6-43.7
			C220.2,124.2,177.4,139.3,127.9,135.3z"/>
	</g>
	<g id="XMLID_69_">
		<path class="st0" d="M120.8,154.8c-48.7-13.4-87.7-43-101-73.4c7,32.7,47.6,66.7,99.8,81c52.3,14.3,99.4,4.4,115.2-22
			C213.8,161.5,169.4,168.2,120.8,154.8z"/>
	</g>
	<g id="XMLID_68_">
		<path class="st0" d="M137.9,143.3c-46.9,18.7-91.6,17-114.6-1.6c18.4,24.5,66.1,29.2,116.5,9.1c50.4-20.1,87.1-58.5,90.7-91.9
			C220.4,90.7,184.8,124.5,137.9,143.3z"/>
	</g>
	<g id="XMLID_67_">
		<path class="st0" d="M136.5,165.1c-48.7,9.6-92.7-0.7-113.2-23.4c15.3,27.7,61.9,41.4,114.2,31.2c52.3-10.3,93.2-41.2,100.8-73.4
			C224.5,128.9,185.2,155.5,136.5,165.1z"/>
	</g>
	<g id="XMLID_66_">
		<path id="XMLID_129_" class="st0" d="M126.6,48.7c-8.3,0-15-6.7-15-15s6.7-15,15-15s15,6.7,15,15S134.8,48.7,126.6,48.7z
			 M126.6,24.8c-4.9,0-9,4-9,9s4,9,9,9s9-4,9-9S131.5,24.8,126.6,24.8z"/>
	</g>
	<g id="XMLID_65_">
		<path id="XMLID_128_" class="st0" d="M155.6,113h-6V65.1c0-5.9-4.8-10.7-10.7-10.7h-24.9c-5.9,0-10.7,4.8-10.7,10.7V113h-6V65.1
			c0-9.2,7.5-16.7,16.7-16.7h24.9c9.2,0,16.7,7.5,16.7,16.7V113z"/>
	</g>
	<g id="XMLID_64_">
		<circle class="st0" cx="126.6" cy="51.6" r="2.5"/>
	</g>
	<g id="XMLID_63_">
		<rect x="125.1" y="55.7" class="st0" width="3" height="24.3"/>
	</g>
	<g id="XMLID_62_">
		<rect x="126.2" y="51.5" class="st0" width="0.7" height="11.7"/>
	</g>
	<g id="XMLID_61_">
		<rect id="XMLID_127_" x="106.6" y="66.1" class="st0" width="6" height="46.9"/>
	</g>
	<g id="XMLID_60_">
		<rect id="XMLID_126_" x="140.1" y="66.1" class="st0" width="6" height="46.9"/>
	</g>
	<g id="XMLID_59_">
		<path id="XMLID_123_" class="st0" d="M168.3,52c-7.2,0-13-5.8-13-13s5.8-13,13-13s13,5.8,13,13S175.5,52,168.3,52z M168.3,32
			c-3.9,0-7,3.1-7,7s3.1,7,7,7s7-3.1,7-7S172.2,32,168.3,32z"/>
	</g>
	<g id="XMLID_58_">
		<path id="XMLID_122_" class="st0" d="M191.4,113h-6V68.7c0-6.2-4.1-11.2-9.1-11.2h-22v-6h22c8.3,0,15.1,7.7,15.1,17.2V113z"/>
	</g>
	<g id="XMLID_57_">
		<rect id="XMLID_121_" x="174.9" y="73.1" class="st0" width="6" height="44"/>
	</g>
	<g id="XMLID_56_">
		<path id="XMLID_118_" class="st0" d="M84,52.2c-7.2,0-13-5.8-13-13s5.8-13,13-13s13,5.8,13,13S91.2,52.2,84,52.2z M84,32.1
			c-3.9,0-7,3.1-7,7s3.1,7,7,7s7-3.1,7-7S87.9,32.1,84,32.1z"/>
	</g>
	<g id="XMLID_55_">
		<path id="XMLID_117_" class="st0" d="M67,113h-6V68.9c0-9.5,6.8-17.2,15.1-17.2h22v6h-22c-5,0-9.1,5-9.1,11.2V113z"/>
	</g>
	<g id="XMLID_54_">
		
			<rect id="XMLID_116_" x="52.6" y="90.2" transform="matrix(4.676331e-004 1 -1 4.676331e-004 167.6414 18.581)" class="st0" width="43.9" height="6"/>
	</g>
	<g id="XMLID_53_">
		<path id="XMLID_96_" class="st1" d="M273.5,71.3c0-6.8,1.8-11,4.4-13.4c2.6-2.4,5.9-3.1,9-3.1c3,0,6.3,0.6,8.9,3.1
			c2.6,2.4,4.4,6.7,4.4,13.4v1.5h-3v-1.5c0-9.6-3.6-13.6-10.3-13.6c-6.8,0-10.4,4.1-10.4,13.6v29.4c0,9.6,3.4,13.7,10.4,13.7
			c3.3,0,5.9-1.1,7.7-3.2c1.8-2.3,2.6-5.7,2.6-10.5v-1.5h3v1.5c0,7-1.8,10.9-4.4,13.4c-2.6,2.5-5.9,3.2-8.9,3.2
			c-3.1,0-6.4-0.6-9-3.2c-2.6-2.5-4.4-6.5-4.4-13.4V71.3z"/>
		<path id="XMLID_98_" class="st1" d="M336.6,117.3h-22.1V54.8h3v59.6h19.1V117.3z"/>
		<path id="XMLID_100_" class="st1" d="M354.2,117.3h-2.9V54.8h2.9V117.3z"/>
		<path id="XMLID_102_" class="st1" d="M393.2,54.8v2.9h-19.6v26.9h16.8v2.9h-16.8v27h19.6v2.9h-22.4V54.8H393.2z"/>
		<path id="XMLID_104_" class="st1" d="M432.9,117.3l-21.6-53.5v53.5h-3V54.8h2.5l21.5,53.5V54.8h3v62.5H432.9z"/>
		<path id="XMLID_106_" class="st1" d="M450.8,54.7h27.3v3h-12.2v59.5H463V57.7h-12.1V54.7z"/>
		<path id="XMLID_108_" class="st1" d="M546.9,117.3l-21.6-53.5v53.5h-3V54.8h2.5l21.5,53.5V54.8h3v62.5H546.9z"/>
		<path id="XMLID_110_" class="st1" d="M587.8,54.8v2.9h-19.6v26.9H585v2.9h-16.8v27h19.6v2.9h-22.4V54.8H587.8z"/>
		<path id="XMLID_112_" class="st1" d="M600,99.3h2.9v1.4c0,6.2,1.6,9.6,3.6,11.4s4.6,2.2,6.9,2.2c6.7,0,10.5-2.8,10.5-11
			c0-13.9-23.8-17.7-23.8-33.8c0-9.4,4.8-14.7,13.4-14.7c8.8,0,13.4,5.8,13.4,16.6v1.5h-3v-1.5c0-9.4-3.4-13.6-10.5-13.6
			c-6.7,0-10.5,3.4-10.5,11.5c0,14.8,23.9,17.8,23.9,33.8c0,9.3-4.8,14.2-13.4,14.2c-8.9,0-13.4-5.5-13.4-16.5V99.3z"/>
		<path id="XMLID_114_" class="st1" d="M638.6,54.7h27.3v3h-12.2v59.5h-2.9V57.7h-12.1V54.7z"/>
	</g>
	<g id="XMLID_52_">
		<path id="XMLID_30_" class="st0" d="M355.7,149.7c1.1-0.2,2.5-0.4,3.8-0.4c1.7,0,3.2,0.4,4.2,1.2c0.8,0.7,1.3,1.6,1.3,2.7
			c0,2.4-1.9,4.2-4.2,4.8l0,0c1.2,0.4,1.8,1.6,1.9,3.3c0.2,2.3,0.3,3.9,0.5,4.5H361c-0.1-0.3-0.3-2.1-0.4-4c-0.1-2.3-1-3.2-2.8-3.2
			H356l-1.4,7.2h-2.2L355.7,149.7z M356.3,157.2h1.9c2.7,0,4.5-1.7,4.5-3.7c0-1.8-1.4-2.6-3.4-2.6c-0.9,0-1.4,0.1-1.8,0.2
			L356.3,157.2z"/>
		<path id="XMLID_33_" class="st0" d="M374.9,165.3c-0.9,0.5-2.5,0.9-4.2,0.9c-3.3,0-4.8-2.1-4.8-4.8c0-3.6,2.8-7.6,6.9-7.6
			c2.4,0,3.7,1.3,3.7,3c0,3.1-3.7,4-8.4,3.9c-0.1,0.5,0,1.6,0.3,2.3c0.5,1.1,1.5,1.6,2.8,1.6c1.5,0,2.6-0.4,3.4-0.8L374.9,165.3z
			 M372.6,155.4c-2.1,0-3.6,1.9-4.1,3.8c3.4,0,6-0.4,6-2.2C374.5,156,373.7,155.4,372.6,155.4z"/>
		<path id="XMLID_36_" class="st0" d="M386,166c0-0.7,0.1-1.8,0.3-3.1h-0.1c-1.4,2.5-3.1,3.3-4.9,3.3c-2.2,0-3.6-1.7-3.6-3.9
			c0-4.1,3.2-8.5,8.7-8.5c1.2,0,2.5,0.2,3.4,0.5l-1.3,6.2c-0.4,2.1-0.6,4.2-0.5,5.5H386z M387.4,155.6c-0.3-0.1-0.8-0.2-1.5-0.2
			c-3.2,0-5.9,3.2-5.9,6.5c0,1.3,0.5,2.6,2.2,2.6c1.8,0,3.9-2.2,4.5-5.4L387.4,155.6z"/>
		<path id="XMLID_39_" class="st0" d="M399.8,165.5c-0.6,0.3-1.9,0.7-3.6,0.7c-3.2,0-4.8-2.1-4.8-4.6c0-4,3.2-7.8,7.7-7.8
			c1.2,0,2.2,0.3,2.6,0.5l-0.6,1.6c-0.5-0.2-1.2-0.4-2.1-0.4c-3.3,0-5.3,3-5.3,5.8c0,1.9,1.1,3.2,3.1,3.2c1.3,0,2.3-0.4,2.9-0.7
			L399.8,165.5z"/>
		<path id="XMLID_41_" class="st0" d="M402.2,166l3.5-17.4h2.2l-1.6,7.7h0.1c1.1-1.4,2.6-2.4,4.5-2.4c1.4,0,3.1,0.8,3.1,3.2
			c0,0.6-0.1,1.4-0.2,2l-1.4,6.9h-2.2l1.4-6.8c0.1-0.4,0.2-1,0.2-1.6c0-1.1-0.5-2-1.9-2c-1.7,0-3.8,1.8-4.3,4.5l-1.2,5.9H402.2z"/>
		<path id="XMLID_43_" class="st0" d="M416,166l2.4-11.9h2.2l-2.4,11.9H416z M418.9,150.8c0-0.8,0.6-1.4,1.4-1.4
			c0.8,0,1.3,0.5,1.3,1.3c0,0.8-0.6,1.4-1.5,1.4C419.3,152.1,418.9,151.5,418.9,150.8z"/>
		<path id="XMLID_46_" class="st0" d="M422,166l1.7-8.4c0.3-1.3,0.4-2.5,0.6-3.5h1.9l-0.3,2.3h0.1c1.1-1.7,2.8-2.6,4.6-2.6
			c1.5,0,3.2,0.8,3.2,3.3c0,0.5-0.1,1.3-0.2,1.9l-1.4,6.9H430l1.4-6.8c0.1-0.5,0.2-1,0.2-1.5c0-1.2-0.5-2.1-2-2.1
			c-1.5,0-3.7,1.7-4.3,4.7l-1.1,5.8H422z"/>
		<path id="XMLID_71_" class="st0" d="M436,168.7c0.8,0.4,2,0.8,3.3,0.8c2.1,0,3.8-1,4.5-4.2l0.4-1.8h-0.1c-1.1,1.7-2.6,2.5-4.4,2.5
			c-2.5,0-3.8-2-3.8-4.1c0-4,3.1-8,8-8c1.5,0,3,0.4,4,0.8l-1.9,9.8c-0.5,2.5-1.2,4.2-2.5,5.3c-1.2,1-2.9,1.3-4.4,1.3
			c-1.5,0-3-0.3-3.8-0.8L436,168.7z M445.6,155.9c-0.4-0.2-1.2-0.4-2.1-0.4c-3.1,0-5.3,3.1-5.3,6c0,1.3,0.5,2.8,2.4,2.8
			c1.8,0,3.7-2.2,4.2-4.5L445.6,155.9z"/>
		<path id="XMLID_74_" class="st0" d="M470.5,155.9c0,2.9-1.1,6-3.2,8c-1.6,1.4-3.6,2.3-6,2.3c-4.5,0-6.6-3.2-6.6-6.7
			c0-2.9,1.2-6.1,3.3-8.1c1.5-1.4,3.7-2.2,5.9-2.2C468.6,149.2,470.5,152.4,470.5,155.9z M459.6,152.6c-1.7,1.6-2.7,4.5-2.7,6.8
			c0,2.7,1.3,5.2,4.7,5.2c1.5,0,2.9-0.6,4-1.6c1.6-1.6,2.6-4.5,2.6-6.8c0-2.4-0.8-5.2-4.6-5.2C462.1,150.9,460.7,151.5,459.6,152.6z
			"/>
		<path id="XMLID_77_" class="st0" d="M484,154.1l-1.7,8.4c-0.3,1.3-0.4,2.5-0.6,3.5h-1.9l0.3-2.2H480c-1.1,1.5-2.8,2.5-4.4,2.5
			c-1.6,0-3.3-0.7-3.3-3.4c0-0.6,0.1-1.2,0.2-2l1.3-6.7h2.2l-1.3,6.6c-0.2,0.7-0.2,1.2-0.2,1.7c0,1.2,0.5,2.1,2,2.1
			c1.6,0,3.6-1.7,4.1-4.3l1.2-6.1H484z"/>
		<path id="XMLID_79_" class="st0" d="M491,150.9l-0.6,3.2h3l-0.3,1.6h-3l-1.2,5.8c-0.1,0.7-0.2,1.3-0.2,1.9c0,0.7,0.4,1.1,1.2,1.1
			c0.4,0,0.7,0,1-0.1l-0.1,1.6c-0.4,0.1-1,0.2-1.7,0.2c-1.9,0-2.6-1.1-2.6-2.3c0-0.7,0.1-1.4,0.3-2.2l1.2-6h-1.8l0.3-1.6h1.8
			l0.5-2.7L491,150.9z"/>
		<path id="XMLID_81_" class="st0" d="M514.5,155.9c0,2.9-1.1,6-3.2,8c-1.6,1.4-3.6,2.3-6,2.3c-4.5,0-6.6-3.2-6.6-6.7
			c0-2.9,1.2-6.1,3.3-8.1c1.5-1.4,3.7-2.2,5.9-2.2C512.7,149.2,514.5,152.4,514.5,155.9z M503.7,152.6c-1.7,1.6-2.7,4.5-2.7,6.8
			c0,2.7,1.3,5.2,4.7,5.2c1.5,0,2.9-0.6,4-1.6c1.6-1.6,2.6-4.5,2.6-6.8c0-2.4-0.8-5.2-4.6-5.2C506.1,150.9,504.7,151.5,503.7,152.6z
			"/>
		<path id="XMLID_84_" class="st0" d="M515.7,166l1.7-8.4c0.3-1.3,0.4-2.5,0.6-3.5h1.9l-0.3,2.3h0.1c1.1-1.7,2.8-2.6,4.6-2.6
			c1.5,0,3.2,0.8,3.2,3.3c0,0.5-0.1,1.3-0.2,1.9l-1.4,6.9h-2.2l1.4-6.8c0.1-0.5,0.2-1,0.2-1.5c0-1.2-0.5-2.1-2-2.1
			c-1.5,0-3.7,1.7-4.3,4.7l-1.1,5.8H515.7z"/>
		<path id="XMLID_86_" class="st0" d="M540.4,151.2h-5.1l0.4-1.8H548l-0.4,1.8h-5.1l-3,14.8h-2.2L540.4,151.2z"/>
		<path id="XMLID_88_" class="st0" d="M546.5,166l2.4-11.9h2.2l-2.4,11.9H546.5z M549.3,150.8c0-0.8,0.6-1.4,1.4-1.4
			c0.8,0,1.3,0.5,1.3,1.3c0,0.8-0.6,1.4-1.5,1.4C549.8,152.1,549.3,151.5,549.3,150.8z"/>
		<path id="XMLID_91_" class="st0" d="M552.4,166l1.7-8.4c0.3-1.3,0.4-2.5,0.6-3.5h1.9l-0.3,2.2h0.1c1.2-1.6,2.8-2.5,4.4-2.5
			c1.9,0,2.8,1.2,2.9,2.6c1.1-1.7,2.7-2.6,4.6-2.6c1.5,0,3,0.9,3,3.1c0,0.6-0.1,1.3-0.2,2l-1.4,7h-2.1l1.4-6.8
			c0.1-0.4,0.2-1.1,0.2-1.5c0-1.3-0.5-2.1-1.9-2.1c-1.6,0-3.4,1.7-3.9,4.4l-1.2,6.1H560l1.4-7c0.1-0.5,0.2-1,0.2-1.4
			c0-1-0.3-2-1.9-2c-1.6,0-3.5,2-4,4.5l-1.2,6H552.4z"/>
		<path id="XMLID_93_" class="st0" d="M582.5,165.3c-0.9,0.5-2.5,0.9-4.2,0.9c-3.3,0-4.8-2.1-4.8-4.8c0-3.6,2.8-7.6,6.9-7.6
			c2.4,0,3.7,1.3,3.7,3c0,3.1-3.7,4-8.4,3.9c-0.1,0.5,0,1.6,0.3,2.3c0.5,1.1,1.5,1.6,2.8,1.6c1.5,0,2.6-0.4,3.4-0.8L582.5,165.3z
			 M580.1,155.4c-2.1,0-3.6,1.9-4.1,3.8c3.4,0,6-0.4,6-2.2C582,156,581.2,155.4,580.1,155.4z"/>
	</g>
	<g id="XMLID_51_">
		<path class="st0" d="M663.1,159.6l-70.8,2c-1.5,0-2.8-0.9-2.8-2v0c0-1.1,1.2-2,2.8-2L663.1,159.6"/>
	</g>
	<g id="XMLID_50_">
		<path class="st0" d="M272.7,159.8l70.8,2c1.5,0,2.8-0.9,2.8-2v0c0-1.1-1.2-2-2.8-2L272.7,159.8"/>
	</g>
	<g id="XMLID_49_">
		<line class="st2" x1="517.8" y1="148.2" x2="517.8" y2="148.2"/>
	</g>
	<g id="XMLID_48_">
		<rect id="XMLID_29_" x="255.8" y="32.8" class="st0" width="2" height="127.8"/>
	</g>
</g>
</svg>
