<svg id="Capa_1" enable-background="new 0 0 512 512" height="512" viewBox="0 0 512 512" width="512" xmlns="http://www.w3.org/2000/svg"><g><path d="m196 377 60 135h82.5l40-97.5v-87.5z" fill="#1a64b6"/><path d="m133.5 337 40 175h82.5v-155z" fill="#1e8aff"/><path d="m338.5 317h-82.5l-30 59.356 30 59.357 92.5-92.5z" fill="#bfdcff"/><path d="m173.5 317-10 26.213 92.5 92.5v-118.713z" fill="#edeff3"/><path d="m90 317c-49.626 0-90 40.374-90 90v105h173.5l-75-195z" fill="#233952"/><path d="m422 317h-8.5l-75 195h173.5v-105c0-49.626-40.374-90-90-90z" fill="#09213d"/><path d="m256 0-71.75 143.5 71.75 143.5c79.253 0 143.5-64.247 143.5-143.5s-64.247-143.5-143.5-143.5z" fill="#ff876c"/><path d="m112.5 143.5c0 79.253 64.247 143.5 143.5 143.5v-287c-79.253 0-143.5 64.247-143.5 143.5z" fill="#ff9e90"/><path d="m98.5 317v120l75 75v-195z" fill="#3d5168"/><path d="m338.5 317v195l75-75v-120z" fill="#233952"/></g></svg>