<svg id="_x31__x2C_5" enable-background="new 0 0 24 24" height="512" viewBox="0 0 24 24" width="512" xmlns="http://www.w3.org/2000/svg"><path d="m22.25 19.25h-20.5c-.552 0-1-.448-1-1v-12.5c0-.552.448-1 1-1h20.5c.552 0 1 .448 1 1v12.5c0 .552-.448 1-1 1z" fill="#f5f5f5"/><path d="m12 6.831-5.25-2.357v-.224c0-.552.448-1 1-1h8.5c.552 0 1 .448 1 1v.224z" fill="#64b5f6"/><path d="m16.25 9.75h-8.5c-.552 0-1-.448-1-1v-4.25l5.25 2.25 5.25-2.25v4.25c0 .552-.448 1-1 1z" fill="#2196f3"/><path d="m16.25 10.5h-8.5c-.965 0-1.75-.785-1.75-1.75v-4.5c0-.965.785-1.75 1.75-1.75h8.5c.965 0 1.75.785 1.75 1.75v4.5c0 .965-.785 1.75-1.75 1.75zm-8.5-6.5c-.138 0-.25.112-.25.25v4.5c0 .138.112.25.25.25h8.5c.138 0 .25-.112.25-.25v-4.5c0-.138-.112-.25-.25-.25z"/><path d="m14.25 4c-.414 0-.75-.336-.75-.75v-1.5c0-.138-.112-.25-.25-.25h-2.5c-.138 0-.25.112-.25.25v1.5c0 .414-.336.75-.75.75s-.75-.336-.75-.75v-1.5c0-.965.785-1.75 1.75-1.75h2.5c.965 0 1.75.785 1.75 1.75v1.5c0 .414-.336.75-.75.75z"/><path d="m12 7.5c-.11 0-.22-.024-.322-.073l-5.25-2.5c-.374-.178-.533-.625-.355-.999.178-.375.626-.534 1-.354l4.927 2.345 4.928-2.346c.375-.18.821-.021 1 .354.178.374.019.821-.355.999l-5.25 2.5c-.103.05-.213.074-.323.074z"/><path d="m22.25 20h-20.5c-.965 0-1.75-.785-1.75-1.75v-12.5c0-.965.785-1.75 1.75-1.75h1.5c.414 0 .75.336.75.75s-.336.75-.75.75h-1.5c-.138 0-.25.112-.25.25v12.5c0 .138.112.25.25.25h20.5c.138 0 .25-.112.25-.25v-12.5c0-.138-.112-.25-.25-.25h-1.5c-.415 0-.75-.336-.75-.75s.335-.75.75-.75h1.5c.965 0 1.75.785 1.75 1.75v12.5c0 .965-.785 1.75-1.75 1.75z"/><path d="m16.25 24h-8.5c-.414 0-.75-.336-.75-.75s.336-.75.75-.75h8.5c.414 0 .75.336.75.75s-.336.75-.75.75z"/><path d="m12 24c-.414 0-.75-.336-.75-.75v-4c0-.414.336-.75.75-.75s.75.336.75.75v4c0 .414-.336.75-.75.75z"/></svg>