<?xml version="1.0" encoding="iso-8859-1"?>
<!-- Generator: Adobe Illustrator 19.0.0, SVG Export Plug-In . SVG Version: 6.00 Build 0)  -->
<svg version="1.1" id="Capa_1" xmlns="http://www.w3.org/2000/svg" xmlns:xlink="http://www.w3.org/1999/xlink" x="0px" y="0px"
	 viewBox="0 0 512 512" style="enable-background:new 0 0 512 512;" xml:space="preserve">
<g>
	<g>
		<path d="M206.617,306.394c-5.857-5.859-15.355-5.859-21.213-0.001l-49.566,49.566l-20.396-19.738
			c-5.954-5.761-15.449-5.605-21.21,0.348c-5.761,5.953-5.605,15.449,0.348,21.21l31,30c2.91,2.817,6.671,4.221,10.43,4.221
			c3.841,0,7.682-1.467,10.607-4.393l60-60C212.475,321.749,212.475,312.252,206.617,306.394z" fill="#5268f2"/>
	</g>
</g>
<g>
	<g>
		<path d="M206.617,216.394c-5.857-5.859-15.355-5.859-21.213-0.001l-49.566,49.566l-20.396-19.738
			c-5.954-5.761-15.449-5.605-21.21,0.348c-5.761,5.953-5.605,15.449,0.348,21.21l31,30c2.91,2.817,6.671,4.221,10.43,4.221
			c3.841,0,7.682-1.467,10.607-4.393l60-60C212.475,231.749,212.475,222.252,206.617,216.394z" fill="#5268f2"/>
	</g>
</g>
<g>
	<g>
		<path d="M206.617,126.394c-5.857-5.859-15.355-5.859-21.213-0.001l-49.566,49.566l-20.396-19.738
			c-5.954-5.761-15.449-5.605-21.21,0.348c-5.761,5.953-5.605,15.449,0.348,21.21l31,30c2.91,2.817,6.671,4.221,10.43,4.221
			c3.841,0,7.682-1.467,10.607-4.393l60-60C212.475,141.749,212.475,132.252,206.617,126.394z" fill="#5268f2"/>
	</g>
</g>
<g>
	<g>
		<path d="M498.831,156.393l-21.213-21.213c-17.587-17.587-46.052-17.588-63.639,0c-7.385,7.385-14.547,14.547-21.967,21.967V107
			c0-3.818-1.505-7.655-4.277-10.49l-90-92C294.921,1.63,290.953,0,287.011,0h-242c-8.284,0-15,6.716-15,15v407h-15
			c-8.284,0-15,6.716-15,15v30c0,24.813,20.187,45,45,45h302c24.813,0,45-20.187,45-45V326.853
			c4.211-4.211,101.862-101.862,106.82-106.82C516.375,202.488,516.375,173.939,498.831,156.393z M302.011,51.783L341.353,92
			h-39.342V51.783z M45.011,482c-8.271,0-15-6.729-15-15v-15c8.321,0,258.267,0,272,0v15c0,5.258,0.915,10.305,2.58,15H45.011z
			 M362.012,467h-0.001c0,8.271-6.729,15-15,15s-15-6.729-15-15v-30c0-8.284-6.715-15-15-15h-257V30h212v77c0,8.284,6.716,15,15,15
			h75v65.147l-96.525,96.525c-1.868,1.868-3.378,4.497-4.01,7.235l-19.081,82.721c-1.162,5.039,0.353,10.322,4.01,13.978
			c3.664,3.664,8.949,5.17,13.978,4.01l82.721-19.081c2.722-0.628,5.352-2.126,7.235-4.01l11.673-11.673V467z M284.624,324.025
			l25.361,25.361l-32.966,7.604L284.624,324.025z M339.731,336.706l-42.426-42.427l106.066-106.066l42.426,42.427L339.731,336.706z
			 M477.618,198.82l-10.607,10.607L424.584,167l10.607-10.607c5.862-5.862,15.349-5.863,21.213,0l21.213,21.213
			C483.466,183.455,483.466,192.971,477.618,198.82z" fill="#5268f2"/>
	</g>
</g>
</svg>
