<?xml version="1.0" encoding="iso-8859-1"?>
<!-- Generator: Adobe Illustrator 19.0.0, SVG Export Plug-In . SVG Version: 6.00 Build 0)  -->
<svg version="1.1" id="Capa_1" xmlns="http://www.w3.org/2000/svg" xmlns:xlink="http://www.w3.org/1999/xlink" x="0px" y="0px"
	 viewBox="0 0 512 512" style="enable-background:new 0 0 512 512;" xml:space="preserve">
<g>
	<g>
		<path d="M422.554,43.181h-86.361v37.012h86.361c3.343,0,6.169,2.825,6.169,6.169v382.458c0,3.343-2.825,6.169-6.169,6.169H89.446
			c-3.343,0-6.169-2.825-6.169-6.169V86.361c0-3.343,2.825-6.169,6.169-6.169h86.361V43.181H89.446
			c-23.811,0-43.181,19.37-43.181,43.181v382.458c0,23.805,19.37,43.181,43.181,43.181h333.108
			c23.805,0,43.181-19.376,43.181-43.181V86.361C465.735,62.55,446.359,43.181,422.554,43.181z" fill="#5268f2"/>
	</g>
</g>
<g>
	<g>
		<path d="M214.053,151.133H133.86c-10.221,0-18.506,8.284-18.506,18.506v80.193c0,10.222,8.285,18.506,18.506,18.506h80.193
			c10.221,0,18.506-8.284,18.506-18.506v-80.193C232.559,159.417,224.275,151.133,214.053,151.133z M195.547,231.325h-43.181
			v-43.181h43.181V231.325z" fill="#5268f2"/>
	</g>
</g>
<g>
	<g>
		<path d="M378.14,191.229h-91.296c-10.221,0-18.506,8.284-18.506,18.506s8.285,18.506,18.506,18.506h91.296
			c10.221,0,18.506-8.285,18.506-18.506S388.361,191.229,378.14,191.229z" fill="#5268f2"/>
	</g>
</g>
<g>
	<g>
		<path d="M214.053,317.687H133.86c-10.221,0-18.506,8.284-18.506,18.506v80.193c0,10.221,8.285,18.506,18.506,18.506h80.193
			c10.221,0,18.506-8.285,18.506-18.506v-80.193C232.559,325.971,224.275,317.687,214.053,317.687z M195.547,397.88h-43.181v-43.181
			h43.181V397.88z" fill="#5268f2"/>
	</g>
</g>
<g>
	<g>
		<path d="M378.14,357.783h-91.296c-10.221,0-18.506,8.284-18.506,18.506c0,10.221,8.285,18.506,18.506,18.506h91.296
			c10.221,0,18.506-8.284,18.506-18.506C396.646,366.068,388.361,357.783,378.14,357.783z" fill="#5268f2"/>
	</g>
</g>
<g>
	<g>
		<path d="M336.193,0H175.807c-10.221,0-18.506,8.285-18.506,18.506v80.193c0,10.221,8.285,18.506,18.506,18.506h160.385
			c10.222,0,18.506-8.285,18.506-18.506V18.506C354.699,8.285,346.414,0,336.193,0z M317.687,80.193H194.313V37.012h123.374V80.193z
			" fill="#5268f2"/>
	</g>
</g>
</svg>
